PathFileType	4	(X/Y/Z)	path1_06_0-578.trc
DataRate	CameraRate	NumFrames	NumMarkers	Units	OrigDataRate	OrigDataStartFrame	OrigNumFrames
30	30	7	22	m	30	433	578
Frame#	Time	Hip			RHip			RKnee			RAnkle			RBigToe			RSmallToe			RHeel			LHip			LKnee			LAnkle			LBigToe			LSmallToe			LHeel			Neck			Head			Nose			RShoulder			RElbow			RWrist			LShoulder			LElbow			LWrist		
		X1	Y1	Z1	X2	Y2	Z2	X3	Y3	Z3	X4	Y4	Z4	X5	Y5	Z5	X6	Y6	Z6	X7	Y7	Z7	X8	Y8	Z8	X9	Y9	Z9	X10	Y10	Z10	X11	Y11	Z11	X12	Y12	Z12	X13	Y13	Z13	X14	Y14	Z14	X15	Y15	Z15	X16	Y16	Z16	X17	Y17	Z17	X18	Y18	Z18	X19	Y19	Z19	X20	Y20	Z20	X21	Y21	Z21	X22	Y22	Z22
434	14.466666666666669	-0.09947934227895437	0.8305410564692722	0.8293234602656813	-0.08413529392358494	0.8013239615852356	0.7277692564342183	-0.006709240687870491	0.4591829401711434	0.749355666648774	0.20498587096356927	0.14700208272184795	0.7729684873748267	0.07300742238881741	0.024096941993854617	0.7539137821606662	0.12587364814080765	0.022866626775317218	0.7167575368644664	0.27173256598418494	0.0953674708595053	0.8021537822031154	-0.10606474413321287	0.7937093333373909	0.9273683298599794	-0.26528086588277544	0.4569075363485363	0.9154915501330114	-0.3646192937050282	0.10292258915790471	0.8959615541982986	-0.5606455934998062	0.07186224354496733	0.90448011909776	-0.5117929811358626	0.058180445942975105	0.9486766704206455	-0.33414203241736895	0.03205306430155812	0.8869629282843388	-0.14002268715634622	1.4332409861649371	0.8347620939517795	-0.08567400834186312	1.6733541115315278	0.7282984768706193	-0.28280917713356507	1.542723533095352	0.8445247103491246	-0.1292277327814557	1.3324511009330995	0.65161024707017	-0.18680372701618916	1.062492908202236	0.6004134396836776	-0.34787566323828994	0.8726499225353457	0.5925655713245221	-0.11708812347200999	1.3337770113981327	1.0214567347310395	-0.03054929240835482	1.0732219564872667	1.0590270137170346	-0.03232700463893534	0.8270096809968673	1.0738676411281989
435	14.5	-0.1439709851968252	0.8295172413601515	0.8348812766110288	-0.1303813304648564	0.8009804276620955	0.7333150827874806	-0.06523622735114755	0.4579542156935807	0.7506945518313881	0.1739862387134725	0.16912366793933703	0.7685897916441886	0.06992795899004599	0.022151963379696542	0.7529267170045656	0.12032965581213244	0.026568881839810578	0.7129209277602937	0.24812553009759314	0.12754810953516227	0.7959708804646906	-0.15061499496300504	0.7922617528289848	0.9303350682395803	-0.29605590929729836	0.4525547471248968	0.9164623405939945	-0.3785098031996893	0.09849708046292463	0.893337000775768	-0.5785159345220684	0.05742695334362563	0.906158869837235	-0.5251269060562335	0.044448758356211024	0.9484671082536812	-0.344720057424334	0.03129158143368568	0.8829230692234538	-0.18022564700777424	1.4347587371081991	0.8399241661762631	-0.09804980154486814	1.6691235252827232	0.7099703495251269	-0.3218917875445992	1.5445134062732968	0.8496362458524068	-0.17184831288529653	1.3363416096250844	0.6559343843679202	-0.22091337184365822	1.0624116921899003	0.6060833373090915	-0.37651927195338886	0.869320766211118	0.5980196447599412	-0.15933448638111256	1.334952656681256	1.0251028151203014	-0.07405785167418731	1.0708603163228	1.0600049215981409	-0.07894876353738625	0.8242363156300647	1.075258909745572
436	14.533333333333331	-0.18957911770660313	0.8301516844751676	0.840424447938031	-0.17811605526261642	0.8034804003912726	0.7382584222950632	-0.13307247106961928	0.4588412720154132	0.7495845029085175	0.1297526739623951	0.1939749336241724	0.7622164032724367	0.05876329373993673	0.02182366079982276	0.7517771247314106	0.10418287626657115	0.03338532680602546	0.7082193075886076	0.2093461430577757	0.16362165513627044	0.7871018754064255	-0.19519731416578423	0.7938658204896089	0.9335329705020081	-0.32399503544045144	0.4500162659481987	0.917928907911265	-0.386519184578341	0.0945523509614848	0.891799234557256	-0.5898426071498442	0.04395827545362249	0.907083881361561	-0.5342502017677259	0.033845779662202785	0.9476457034836078	-0.35032229081787947	0.031466413197923454	0.8796407118496381	-0.22040037268658083	1.4378727400443447	0.845203432991283	-0.11930138902939094	1.669042657148971	0.6984378717304244	-0.36400276322594016	1.5491640418497246	0.8572466813520881	-0.21372813842328325	1.3421330590432128	0.6595719558630517	-0.25222219334048784	1.0638636607689669	0.6119796907455287	-0.39967362570243076	0.8648460247942696	0.6033342287659191	-0.20056229507060291	1.337513417453518	1.0296088818095357	-0.12049067519894655	1.0697735450932453	1.061568276606537	-0.13124463305113968	0.8223521130662873	1.0776893878612566
437	14.566666666666666	-0.23522712309531227	0.832101389351566	0.8454510376320347	-0.22630594381626873	0.8078471607480353	0.7425097864094865	-0.20678145438840864	0.4616964590324862	0.7461800537368554	0.07250072854483756	0.218343628682982	0.755099725642741	0.0328590897041885	0.02445180086473687	0.7494807965884825	0.07254614372654448	0.04245714002746292	0.7031088635319795	0.15422086743446553	0.19810413367641783	0.7766630459161818	-0.23884757713146573	0.7976484178556006	0.9367523042683915	-0.3485603681991054	0.4493174551727335	0.9193193352372988	-0.39021087425931505	0.09139270004991842	0.8907186829289121	-0.5959074155720068	0.033178970959564555	0.9069755694655549	-0.5399782153103326	0.02671422464832235	0.9465762445967721	-0.3534840892882069	0.03212631714152824	0.8771606425826406	-0.26025948307640673	1.4421285430728497	0.8502161161537195	-0.14851804341326402	1.6720545522952306	0.693143059648388	-0.4077419317707288	1.5555731446170291	0.8660611714789787	-0.25395523389469	1.3491013358586659	0.6627988469716464	-0.28106889723226836	1.066518537434272	0.6177690902725148	-0.4177355784740921	0.8598136511003818	0.6083185908228329	-0.24052994328543717	1.3411211174653515	1.0343966399278328	-0.16944603596057983	1.0695779423475174	1.06368735736137	-0.1893166938196172	0.8217742582708839	1.0809854920321316
438	14.6	-0.27977064686623876	0.8349504332279695	0.8497152778772992	-0.2737883985053658	0.8129490476778629	0.7461589565618527	-0.28180295377716613	0.4659810832654107	0.7414412135234916	0.004437691564776946	0.238370942500892	0.7490637779348777	-0.01359368676695234	0.030051533116872035	0.7457612552638089	0.021375374484038506	0.05215207032633921	0.6985409588871672	0.0846530211639223	0.22462725701239378	0.7664282669497732	-0.28072907582383355	0.8024490656817669	0.9399198649596248	-0.36976306762588457	0.45048695975333736	0.9200885838313568	-0.391212878942264	0.08937431220614385	0.8899105190972183	-0.5976369502512328	0.025423330827403435	0.905859492707504	-0.5426964587097014	0.02203245780940452	0.9458705589765195	-0.3556260902712211	0.03295313331117204	0.8756719573807528	-0.2995207173174837	1.4469438041133091	0.8546553258598267	-0.18427992658538517	1.6767473921863665	0.6932539175617387	-0.4515312565465497	1.5624025334546305	0.8746875294541224	-0.2920231886470775	1.3563759590323232	0.6658774787127306	-0.3076148560980274	1.0695983627329604	0.6231923407971894	-0.43121695304670254	0.8547982026976643	0.6127720531816794	-0.27923796725710026	1.3451232306635321	1.0389539280905025	-0.22031157585488848	1.0697991619988423	1.0662629391331166	-0.2525630888888913	0.8229055841518853	1.084961949960086
439	14.633333333333333	-0.3223297129056425	0.8383088879061826	0.8531988709090269	-0.319462879987538	0.8178640199805535	0.749280408335599	-0.3536748587103734	0.47090821544620703	0.7362576144699885	-0.07156479620281594	0.250356027064222	0.7456871328929134	-0.08351199350484295	0.03657137442831335	0.7416966284197065	-0.0511795990476527	0.060456725677847635	0.6959275486143996	0.0044892387833630806	0.23785366419027998	0.7582964537575891	-0.32028176345279014	0.8071934594425426	0.943037526896275	-0.38808725892911866	0.45327753849213487	0.9201119142821226	-0.39131804978300094	0.08887183467662556	0.8897742064662842	-0.5959563942440217	0.02012892947309402	0.9041889838490467	-0.5432477724602881	0.0184304923392999	0.9459187412265171	-0.3571037577197583	0.03379375582138827	0.8752765797401311	-0.3379519215339406	1.451661604129646	0.8583977129434488	-0.22525628888845198	1.6819144686460106	0.6979615895628779	-0.49420514315508185	1.568502996563311	0.8821707570190982	-0.3282822887748691	1.363180352540997	0.6686630100421284	-0.3321059144163424	1.0723915333346796	0.6281438183462498	-0.44083202047747116	0.8502612683276451	0.6165300636561215	-0.31689564484439725	1.348708970660607	1.0430463475506	-0.27242439649115063	1.0703268104428232	1.0693689308492926	-0.31948078731332574	0.8262127402311762	1.0895149103847632
440	14.666666666666666	-0.3624014358666095	0.8417491188815991	0.8559773564956437	-0.36249833946732163	0.8218952972183958	0.7517962948594179	-0.41930239094403854	0.47556262396869003	0.7310851272297075	-0.15369128291132642	0.25159877100975464	0.7455483155755531	-0.176967527219374	0.04112262697425694	0.7391263721139578	-0.14481011979043443	0.06518308573732022	0.6961924566605477	-0.08278911210056211	0.2349460870471006	0.753591243730854	-0.3572050515901903	0.8110057002217222	0.9460560187132885	-0.40413707138045607	0.45692127736070615	0.9200212533767501	-0.3917900996093094	0.08996611466582786	0.8906156531471795	-0.5924082511917346	0.01662041863625485	0.9028334939600321	-0.5429374973379544	0.015048300394326284	0.9465388279974676	-0.3577133219507056	0.03440342219002859	0.8757468655221272	-0.37547760999019975	1.455612238167879	0.8614688419108596	-0.27153466170019896	1.6867728922836462	0.7075577122622873	-0.5350105695138995	1.5730563589503352	0.8877948097894311	-0.36360549390430436	1.368846754680874	0.6707960370485297	-0.3551530607407617	1.074673684695859	0.6326538721240106	-0.44763032098506955	0.846562920012359	0.6195089358581742	-0.35377779788696523	1.3511159931635361	1.0467413835448158	-0.3252521518919058	1.0716023647017061	1.0733459824083262	-0.38810807725523805	0.8320884411116801	1.094512078269219
